<svg xmlns="http://www.w3.org/2000/svg" viewBox="0 0 32 32">
  <rect width="32" height="32" rx="6" fill="#07160a"/>
  <rect x="0" y="0" width="32" height="1.5" fill="#c9a84c"/>
  <rect x="0" y="1.5" width="32" height=".8" fill="#3a8a4c"/>
  <rect x="0" y="29.7" width="32" height="1.5" fill="#c9a84c"/>
  <rect x="0" y="28.9" width="32" height=".8" fill="#3a8a4c"/>
  <rect x="0" y="0" width="1.5" height="32" fill="#c9a84c"/>
  <rect x="1.5" y="0" width=".8" height="32" fill="#3a8a4c"/>
  <rect x="29.7" y="0" width="1.5" height="32" fill="#c9a84c"/>
  <rect x="28.9" y="0" width=".8" height="32" fill="#3a8a4c"/>
  <g opacity=".12">
    <circle cx="16" cy="3.5" r=".65" fill="#c9a84c"/>
    <circle cx="10" cy="5.5" r=".65" fill="#c9a84c"/>
    <circle cx="22" cy="5.5" r=".65" fill="#c9a84c"/>
    <circle cx="5.5" cy="10" r=".65" fill="#c9a84c"/>
    <circle cx="16" cy="9" r=".65" fill="#c9a84c"/>
    <circle cx="26.5" cy="10" r=".65" fill="#c9a84c"/>
    <circle cx="4" cy="16" r=".65" fill="#c9a84c"/>
    <circle cx="28" cy="16" r=".65" fill="#c9a84c"/>
    <circle cx="5.5" cy="22" r=".65" fill="#c9a84c"/>
    <circle cx="26.5" cy="22" r=".65" fill="#c9a84c"/>
    <circle cx="10" cy="26.5" r=".65" fill="#c9a84c"/>
    <circle cx="22" cy="26.5" r=".65" fill="#c9a84c"/>
    <circle cx="16" cy="28.5" r=".65" fill="#c9a84c"/>
  </g>
  <text x="16" y="17"
    font-family="Georgia, serif"
    font-size="12"
    font-weight="700"
    fill="#c9a84c"
    text-anchor="middle"
    letter-spacing="-0.5">MB</text>
  <rect x="5" y="18.5" width="22" height=".6" fill="#c9a84c" opacity=".35"/>
  <text x="16" y="25"
    font-family="Georgia, serif"
    font-size="12"
    font-weight="700"
    fill="#c9a84c"
    text-anchor="middle"
    letter-spacing="-0.5">TM</text>
</svg>